<?xml version="1.0" encoding="UTF-8" standalone="no"?>
<!-- Generator: Adobe Illustrator 22.0.1, SVG Export Plug-In . SVG Version: 6.00 Build 0)  -->

<svg
   xmlns:dc="http://purl.org/dc/elements/1.1/"
   xmlns:cc="http://creativecommons.org/ns#"
   xmlns:rdf="http://www.w3.org/1999/02/22-rdf-syntax-ns#"
   xmlns:svg="http://www.w3.org/2000/svg"
   xmlns="http://www.w3.org/2000/svg"
   xmlns:sodipodi="http://sodipodi.sourceforge.net/DTD/sodipodi-0.dtd"
   xmlns:inkscape="http://www.inkscape.org/namespaces/inkscape"
   version="1.1"
   id="Camada_1"
   x="0px"
   y="0px"
   viewBox="0 0 156 21.1"
   xml:space="preserve"
   sodipodi:docname="credicard-logo.svg"
   width="156"
   height="21.1"
   inkscape:version="0.92.1 r15371"><metadata
     id="metadata13"><rdf:RDF><cc:Work
         rdf:about=""><dc:format>image/svg+xml</dc:format><dc:type
           rdf:resource="http://purl.org/dc/dcmitype/StillImage" /><dc:title></dc:title></cc:Work></rdf:RDF></metadata><defs
     id="defs11" /><sodipodi:namedview
     pagecolor="#ffffff"
     bordercolor="#666666"
     borderopacity="1"
     objecttolerance="10"
     gridtolerance="10"
     guidetolerance="10"
     inkscape:pageopacity="0"
     inkscape:pageshadow="2"
     inkscape:window-width="1366"
     inkscape:window-height="705"
     id="namedview9"
     showgrid="false"
     inkscape:zoom="3.0208"
     inkscape:cx="138.9499"
     inkscape:cy="-15.074404"
     inkscape:window-x="-8"
     inkscape:window-y="-8"
     inkscape:window-maximized="1"
     inkscape:current-layer="Camada_1" /><style
     type="text/css"
     id="style2">
	.st0{fill:#33348E;}
</style><g
     id="g6"
     transform="matrix(0.06773534,0,0,0.06773534,-6.3876455,-67.090285)"
     style="fill:#0d456f;fill-opacity:1"><path
       class="st0"
       d="m 836.8,1075.9 6.5,-37.8 c -155.8,-61.4 -286.2,134.5 -150.5,211.3 34.8,14.2 74.4,10.6 110.9,3 l 11.8,-36.6 c -208.9,54.3 -136.9,-205.4 21.3,-139.9 z m -1.8,180.6 36.6,-227.8 h 113.3 c 67.3,1.8 70.8,100.3 -20.6,123.9 l 41.3,103.9 h -52.5 l -39.5,-123.9 c 38.9,2.4 70.2,-4.7 73.2,-42.5 2.4,-31.3 -46.6,-26.5 -76.1,-26 l -31.9,191.8 z m 229.6,-227.8 -36.6,227.8 h 158.1 l 5.9,-38.4 h -113.3 l 12.4,-62 h 96.2 l 5.9,-30.7 H 1097 l 10.6,-58.4 h 110.9 l 6.5,-38.4 h -160.4 z m 195.3,-1.2 h 124.5 c 102.1,5.3 87.3,224.8 -57.2,227.2 h -111.5 z m 34.8,38.4 -25.4,152.3 h 59 c 80.9,-10 100.9,-146.4 37.2,-152.3 z m 159.4,191.2 h 50.8 l 34.2,-228.4 h -50.2 z m 745.3,-229.6 h 124.5 c 102.1,5.3 87.3,224.8 -57.2,227.2 h -111.5 z m 34.8,38.4 -25.4,152.3 h 59 c 80.8,-10 100.3,-146.4 37.2,-152.3 z m -268.5,190.6 43.1,-0.6 32.5,-191.8 c 29.5,-0.6 78.5,-5.3 76.1,26 -3.5,37.8 -34.3,44.8 -73.2,42.5 l 38.9,123.9 h 53.1 l -41.3,-103.9 c 91.5,-23.6 87.3,-122.1 20.7,-123.9 h -113.3 z m -126.3,-220.7 -120.4,180 c -207.1,53.1 -135.1,-205.4 23,-139.9 l 5.9,-37.8 c -155.8,-61.4 -285.6,134.5 -149.9,211.3 34.2,14.2 73.8,14.8 110.4,7.1 l 42.5,0.6 46,-83.2 h 86.2 l 14.7,82.6 h 52.5 l -52.5,-220.7 z m -22.4,103.3 45.4,-71.4 15.9,71.4 z M 367.1,1077.7 c -120.4,-60.8 -230.7,-74.4 -253.2,-38.4 -16.5,27.7 24.8,77.9 97.4,125.7 -72.6,47.8 -113.9,87.9 -97.4,99.7 17.1,11.8 91.5,-10.6 181.2,-53.1 119.8,56.7 234.9,73.8 257.3,37.2 16.5,-27.2 -30.7,-72 -100.9,-123.3 74.3,-48.4 118.6,-90.9 102.1,-102.7 -17.1,-11.8 -92.7,11.2 -183.5,54.9 h 28.3 c 50.2,-23.6 89.7,-37.8 102.1,-35.4 14.2,3 -10.6,26 -60.8,59 l -13,10 c -12.4,10 -165.8,89.7 -184.1,96.8 -43.1,19.5 -76.7,30.7 -87.3,28.3 -7.1,-7.1 54.9,-46 74.9,-67.9 v -74.3 c 0,-9.4 7.1,-16.5 15.9,-16.5 z m -64.4,130.4 135.7,-74.4 v 57.8 c 0,9.5 -7.7,16.5 -16.5,16.5 H 302.7 Z"
       id="path4"
       inkscape:connector-curvature="0"
       style="fill:#0d456f;fill-opacity:1" /></g></svg>